<?xml version="1.0" encoding="UTF-8"?>
<svg id="Layer_1" xmlns="http://www.w3.org/2000/svg" version="1.1" viewBox="0 0 121.8 122.9">
  <!-- Generator: Adobe Illustrator 29.0.0, SVG Export Plug-In . SVG Version: 2.1.0 Build 186)  -->
  <defs>
    <style>
      .st0 {
        fill: #00aeef;
      }
    </style>
  </defs>
  <path d="M112,0H9.8C4.4,0,0,4.4,0,9.8v78.7c0,5.4,4.4,9.8,9.8,9.8h12.8v20.7c0,1.1.5,2.1,1.2,2.8,1.6,1.4,4,1.3,5.4-.2l24.3-23.3h58.5c5.4,0,9.8-4.4,9.8-9.8V9.8c0-5.4-4.4-9.8-9.8-9.8ZM114.2,88.6h0c0,1.2-1,2.2-2.2,2.2h-60c-1,0-1.9.4-2.6,1.1l-19.1,18.3v-15.6c0-2.1-1.7-3.8-3.8-3.8H9.8c-1.2,0-2.2-1-2.2-2.2V9.8c0-1.2,1-2.1,2.2-2.2h102.2c.6,0,1.1.2,1.5.6.4.4.6.9.6,1.5,0,0,0,78.7,0,78.7ZM93.4,31H28.5c-.1,0-.3,0-.4,0-2.1.1-3.7,1.9-3.6,4s1.9,3.7,4,3.6h65c2,0,3.5-1.7,3.6-3.6.1-2.1-1.5-3.9-3.6-4ZM81.4,55.9H28.5c-2.1,0-3.8,1.7-3.8,3.8s1.7,3.8,3.8,3.8h53c2.1,0,3.8-1.7,3.8-3.8s-1.7-3.8-3.8-3.8ZM93.4,31H28.5c-.1,0-.3,0-.4,0-2.1.1-3.7,1.9-3.6,4s1.9,3.7,4,3.6h65c2,0,3.5-1.7,3.6-3.6.1-2.1-1.5-3.9-3.6-4ZM81.4,55.9H28.5c-2.1,0-3.8,1.7-3.8,3.8s1.7,3.8,3.8,3.8h53c2.1,0,3.8-1.7,3.8-3.8s-1.7-3.8-3.8-3.8ZM93.4,31H28.5c-.1,0-.3,0-.4,0-2.1.1-3.7,1.9-3.6,4s1.9,3.7,4,3.6h65c2,0,3.5-1.7,3.6-3.6.1-2.1-1.5-3.9-3.6-4ZM81.4,55.9H28.5c-2.1,0-3.8,1.7-3.8,3.8s1.7,3.8,3.8,3.8h53c2.1,0,3.8-1.7,3.8-3.8s-1.7-3.8-3.8-3.8Z"/>
  <path class="st0" d="M113.5,8.3c-.4-.4-.9-.6-1.5-.6H9.8c-1.2,0-2.1,1-2.2,2.2v78.7c0,1.2,1,2.2,2.2,2.2h16.6c2.1,0,3.8,1.7,3.8,3.8v15.6l19.1-18.3c.7-.7,1.7-1.1,2.6-1.1h60c1.2,0,2.2-.9,2.2-2.1V9.8c0-.6-.2-1.1-.6-1.5ZM81.4,63.6H28.5c-2.1,0-3.8-1.7-3.8-3.8s1.7-3.8,3.8-3.8h53c2.1,0,3.8,1.7,3.8,3.8s-1.7,3.8-3.8,3.8ZM93.4,38.7H28.5c-2.1.1-3.9-1.5-4-3.6s1.5-3.9,3.6-4c.1,0,.3,0,.4,0h65c2.1.1,3.7,1.9,3.6,4,0,2-1.7,3.5-3.6,3.6Z"/>
</svg>